<?xml version="1.0" encoding="UTF-8" standalone="no" ?>
<!DOCTYPE svg PUBLIC "-//W3C//DTD SVG 1.1//EN" "http://www.w3.org/Graphics/SVG/1.1/DTD/svg11.dtd">
<svg xmlns="http://www.w3.org/2000/svg" xmlns:xlink="http://www.w3.org/1999/xlink" version="1.1" width="1080" height="1080" viewBox="0 0 1080 1080" xml:space="preserve">
<desc>Created with Fabric.js 5.2.4</desc>
<defs>
</defs>
<g transform="matrix(1 0 0 1 540 540)" id="076638b6-0000-4260-9df4-5e847eb5a6d6"  >
<rect style="stroke: none; stroke-width: 1; stroke-dasharray: none; stroke-linecap: butt; stroke-dashoffset: 0; stroke-linejoin: miter; stroke-miterlimit: 4; fill: rgb(255,255,255); fill-rule: nonzero; opacity: 1; visibility: hidden;" vector-effect="non-scaling-stroke"  x="-540" y="-540" rx="0" ry="0" width="1080" height="1080" />
</g>
<g transform="matrix(1 0 0 1 540 540)" id="27dda09f-97a9-4038-a55f-d9d8ccb1795f"  >
</g>
<g transform="matrix(45 0 0 45 540 540)"  >
<path style="stroke: none; stroke-width: 1; stroke-dasharray: none; stroke-linecap: butt; stroke-dashoffset: 0; stroke-linejoin: miter; stroke-miterlimit: 4; fill: rgb(228,214,214); fill-opacity: 0.29; fill-rule: nonzero; opacity: 1;"  transform=" translate(-12, -12)" d="M 5 22 L 19 22 C 20.103 22 21 21.103 21 20 L 21 9 C 21 8.447715250169207 20.552284749830793 8 20 8 L 17 8 L 17 7 C 17 4.243 14.757 2 12 2 C 9.243 2 7 4.243 7 7 L 7 8 L 4 8 C 3.4477152501692068 8 3 8.447715250169207 3 9 L 3 20 C 3 21.103 3.8970000000000002 22 5 22 z M 9 7 C 9 5.346 10.346 4 12 4 C 13.654 4 15 5.346 15 7 L 15 8 L 9 8 L 9 7 z M 5 10 L 7 10 L 7 12 L 9 12 L 9 10 L 15 10 L 15 12 L 17 12 L 17 10 L 19 10 L 19.002 20 L 5 20 L 5 10 z" stroke-linecap="round" />
</g>
<g transform="matrix(45 0 0 45 540 540)"  >
<path style="stroke: none; stroke-width: 1; stroke-dasharray: none; stroke-linecap: butt; stroke-dashoffset: 0; stroke-linejoin: miter; stroke-miterlimit: 4; fill: rgb(228,214,214); fill-opacity: 0.29; fill-rule: nonzero; opacity: 1;"  transform=" translate(-12, -12)" d="M 5 22 L 19 22 C 20.103 22 21 21.103 21 20 L 21 9 C 21 8.447715250169207 20.552284749830793 8 20 8 L 17 8 L 17 7 C 17 4.243 14.757 2 12 2 C 9.243 2 7 4.243 7 7 L 7 8 L 4 8 C 3.4477152501692068 8 3 8.447715250169207 3 9 L 3 20 C 3 21.103 3.8970000000000002 22 5 22 z M 9 7 C 9 5.346 10.346 4 12 4 C 13.654 4 15 5.346 15 7 L 15 8 L 9 8 L 9 7 z M 5 10 L 7 10 L 7 12 L 9 12 L 9 10 L 15 10 L 15 12 L 17 12 L 17 10 L 19 10 L 19.002 20 L 5 20 L 5 10 z" stroke-linecap="round" />
</g>
<g transform="matrix(45 0 0 45 540 540)"  >
<path style="stroke: none; stroke-width: 1; stroke-dasharray: none; stroke-linecap: butt; stroke-dashoffset: 0; stroke-linejoin: miter; stroke-miterlimit: 4; fill: rgb(228,214,214); fill-rule: nonzero; opacity: 0.98;"  transform=" translate(-12, -12)" d="M 5 22 L 19 22 C 20.103 22 21 21.103 21 20 L 21 9 C 21 8.447715250169207 20.552284749830793 8 20 8 L 17 8 L 17 7 C 17 4.243 14.757 2 12 2 C 9.243 2 7 4.243 7 7 L 7 8 L 4 8 C 3.4477152501692068 8 3 8.447715250169207 3 9 L 3 20 C 3 21.103 3.8970000000000002 22 5 22 z M 9 7 C 9 5.346 10.346 4 12 4 C 13.654 4 15 5.346 15 7 L 15 8 L 9 8 L 9 7 z M 5 10 L 7 10 L 7 12 L 9 12 L 9 10 L 15 10 L 15 12 L 17 12 L 17 10 L 19 10 L 19.002 20 L 5 20 L 5 10 z" stroke-linecap="round" />
</g>
</svg>